<?xml version="1.0" encoding="UTF-8" standalone="no" ?>
<!DOCTYPE svg PUBLIC "-//W3C//DTD SVG 1.1//EN" "http://www.w3.org/Graphics/SVG/1.1/DTD/svg11.dtd">
<svg xmlns="http://www.w3.org/2000/svg" xmlns:xlink="http://www.w3.org/1999/xlink" version="1.1" width="445" height="445" viewBox="0 0 445 445" xml:space="preserve">
<desc>Created with Fabric.js 1.7.22</desc>
<defs>
</defs>
<g id="icon" style="stroke: none; stroke-width: 1; stroke-dasharray: none; stroke-linecap: butt; stroke-linejoin: miter; stroke-miterlimit: 10; fill: none; fill-rule: nonzero; opacity: 1;" transform="translate(-2.4722222222222285 -2.4722222222222285) scale(4.94 4.94)" >
	<path d="M 45 90 c -1.415 0 -2.725 -0.748 -3.444 -1.966 l -4.385 -7.417 C 28.167 65.396 19.664 51.02 16.759 45.189 c -2.112 -4.331 -3.175 -8.955 -3.175 -13.773 C 13.584 14.093 27.677 0 45 0 c 17.323 0 31.416 14.093 31.416 31.416 c 0 4.815 -1.063 9.438 -3.157 13.741 c -0.025 0.052 -0.053 0.104 -0.08 0.155 c -2.961 5.909 -11.41 20.193 -20.353 35.309 l -4.382 7.413 C 47.725 89.252 46.415 90 45 90 z" style="stroke: none; stroke-width: 1; stroke-dasharray: none; stroke-linecap: butt; stroke-linejoin: miter; stroke-miterlimit: 10; fill: rgb(4,136,219); fill-rule: nonzero; opacity: 1;" transform=" matrix(1 0 0 1 0 0) " stroke-linecap="round" />
	<path d="M 45 8.7 c -11.916 0 -21.611 9.694 -21.611 21.61 c 0 11.916 9.695 21.61 21.611 21.61 c 11.915 0 21.61 -9.694 21.61 -21.61 C 66.61 18.394 56.915 8.7 45 8.7 z" style="stroke: none; stroke-width: 1; stroke-dasharray: none; stroke-linecap: butt; stroke-linejoin: miter; stroke-miterlimit: 10; fill: rgb(188,230,245); fill-rule: nonzero; opacity: 1;" transform=" matrix(1 0 0 1 0 0) " stroke-linecap="round" />
	<path d="M 56.068 33.383 l 1.259 -1.259 c 0.193 -0.193 0.299 -0.45 0.299 -0.723 c 0 -0.273 -0.106 -0.53 -0.299 -0.723 l -1.012 -1.012 c -0.398 -0.399 -1.047 -0.399 -1.445 0 l -0.23 0.23 l -0.742 -1.812 c 1.771 -1.839 3.036 -3.487 3.756 -4.901 c 0.989 -1.944 0.961 -3.458 -0.082 -4.502 c -1.798 -1.797 -5.042 -0.526 -9.404 3.673 l -1.811 -0.742 l 0.23 -0.23 c 0.193 -0.193 0.299 -0.45 0.299 -0.723 c 0 -0.273 -0.106 -0.53 -0.299 -0.723 l -1.012 -1.012 c -0.386 -0.386 -1.06 -0.386 -1.445 0 l -1.259 1.259 l -4.457 -1.826 c -0.826 -0.338 -1.769 -0.197 -2.46 0.367 l -1.674 1.366 c -0.256 0.209 -0.399 0.517 -0.394 0.847 c 0.005 0.33 0.159 0.634 0.42 0.832 l 8.503 6.557 c -1.292 1.618 -2.553 3.323 -3.688 5.001 c -0.302 0.446 -0.574 0.859 -0.825 1.248 l -3.452 -1.551 c -0.575 -0.259 -1.25 -0.193 -1.762 0.175 l -1.074 0.771 c -0.236 0.17 -0.375 0.433 -0.381 0.724 c -0.006 0.291 0.121 0.56 0.35 0.74 l 4.086 3.196 c -0.466 1.228 -0.197 1.501 -0.069 1.628 c 0.073 0.073 0.195 0.195 0.52 0.195 c 0.238 0 0.59 -0.068 1.108 -0.265 l 3.197 4.087 c 0.175 0.223 0.436 0.35 0.719 0.35 c 0.007 0 0.013 0 0.02 0 c 0.29 -0.006 0.554 -0.145 0.724 -0.381 l 0.771 -1.074 c 0.368 -0.512 0.435 -1.187 0.175 -1.761 l -1.551 -3.453 c 0.39 -0.251 0.801 -0.522 1.247 -0.824 c 1.679 -1.136 3.384 -2.396 5.003 -3.689 l 6.556 8.501 c 0.2 0.262 0.503 0.416 0.833 0.422 c 0.006 0 0.013 0 0.019 0 c 0.323 0 0.624 -0.143 0.829 -0.394 l 1.366 -1.674 c 0.564 -0.692 0.705 -1.634 0.367 -2.46 L 56.068 33.383 z" style="stroke: none; stroke-width: 1; stroke-dasharray: none; stroke-linecap: butt; stroke-linejoin: miter; stroke-miterlimit: 10; fill: rgb(9,92,145); fill-rule: nonzero; opacity: 1;" transform=" matrix(1 0 0 1 0 0) " stroke-linecap="round" />
</g>
</svg>